<?xml version="1.0" encoding="utf-8"?>
<!DOCTYPE svg PUBLIC "-//W3C//DTD SVG 1.1//EN"
"http://www.w3.org/Graphics/SVG/1.1/DTD/svg11.dtd">
<svg width="2000" height="2000" version="1.1"
xmlns="http://www.w3.org/2000/svg" style="background-color: white">
<rect x="0" y="0" width="2000" height="2000" fill="#ffffff" />
<line x1="100" y1="100" x2="1900" y2="100" stroke="black" />
<text x="1900" y="100" font-family="Arial" font-size="20">20</text>
<line x1="100" y1="100" x2="100" y2="1900" stroke="black" />
<text x="100" y="100" font-family="Arial" font-size="20">1</text>
<text x="100" y="1900" font-family="Arial" font-size="20">20</text>
<circle cx="763.157895" cy="1521.052632" r="8" stroke="black" stroke-width="1" fill="black"/>
<circle cx="100.000000" cy="1047.368421" r="8" stroke="black" stroke-width="1" fill="black"/>
<circle cx="1236.842105" cy="1047.368421" r="8" stroke="black" stroke-width="1" fill="black"/>
<circle cx="1142.105263" cy="1805.263158" r="8" stroke="black" stroke-width="1" fill="black"/>
<circle cx="1710.526316" cy="763.157895" r="8" stroke="black" stroke-width="1" fill="black"/>
<circle cx="194.736842" cy="478.947368" r="8" stroke="black" stroke-width="1" fill="black"/>
<circle cx="1805.263158" cy="1710.526316" r="8" stroke="black" stroke-width="1" fill="black"/>
<circle cx="1047.368421" cy="1142.105263" r="8" stroke="black" stroke-width="1" fill="black"/>
<circle cx="289.473684" cy="1426.315789" r="8" stroke="black" stroke-width="1" fill="black"/>
<circle cx="289.473684" cy="857.894737" r="8" stroke="black" stroke-width="1" fill="black"/>
<circle cx="194.736842" cy="194.736842" r="8" stroke="black" stroke-width="1" fill="black"/>
<circle cx="1426.315789" cy="1331.578947" r="8" stroke="black" stroke-width="1" fill="black"/>
<circle cx="1426.315789" cy="1142.105263" r="8" stroke="black" stroke-width="1" fill="black"/>
<circle cx="857.894737" cy="668.421053" r="8" stroke="black" stroke-width="1" fill="black"/>
<circle cx="1805.263158" cy="1615.789474" r="8" stroke="black" stroke-width="1" fill="black"/>
<circle cx="668.421053" cy="384.210526" r="8" stroke="black" stroke-width="1" fill="black"/>
<circle cx="952.631579" cy="384.210526" r="8" stroke="black" stroke-width="1" fill="black"/>
<circle cx="1047.368421" cy="1805.263158" r="8" stroke="black" stroke-width="1" fill="black"/>
<circle cx="1331.578947" cy="1805.263158" r="8" stroke="black" stroke-width="1" fill="black"/>
<circle cx="1710.526316" cy="952.631579" r="8" stroke="black" stroke-width="1" fill="black"/>
<circle cx="1000.000000" cy="952.631579" r="1105.826924" stroke="red" stroke-width="3" fill="transparent" fill-opacity="0" />
</svg>
